<?xml version="1.0" standalone="no"?>
<!DOCTYPE svg PUBLIC "-//W3C//DTD SVG 20010904//EN"
 "http://www.w3.org/TR/2001/REC-SVG-20010904/DTD/svg10.dtd">
<svg version="1.0" xmlns="http://www.w3.org/2000/svg"
 width="1000.000000pt" height="1000.000000pt" viewBox="0 0 1000.000000 1000.000000"
 preserveAspectRatio="xMidYMid meet">
<metadata>
Created by potrace 1.11, written by Peter Selinger 2001-2013
</metadata>
<g transform="translate(0.000000,1000.000000) scale(0.100000,-0.100000)"
fill="#000000" stroke="none">
<path d="M2493 9318 c-4 -7 -13 -22 -19 -33 -15 -26 -106 -185 -119 -207 -19
-33 -180 -312 -206 -358 -15 -25 -38 -65 -53 -88 -14 -23 -26 -43 -26 -45 0
-2 -35 -64 -78 -138 -43 -74 -90 -154 -104 -179 -14 -25 -66 -115 -115 -200
-108 -186 -307 -529 -338 -585 -22 -39 -367 -635 -477 -825 -30 -52 -126 -219
-213 -370 -87 -151 -213 -369 -280 -485 -67 -115 -199 -344 -293 -507 l-172
-297 19 -33 c50 -89 510 -885 555 -963 50 -85 301 -520 344 -595 21 -38 84
-147 112 -195 82 -141 236 -408 255 -440 52 -92 178 -311 185 -320 4 -5 19
-30 32 -55 28 -50 104 -181 429 -742 123 -214 229 -398 236 -410 7 -13 84
-147 171 -298 l160 -275 2500 -3 2501 -2 57 97 c31 54 80 139 109 188 71 123
318 552 343 597 23 41 60 103 80 133 6 11 15 26 19 34 3 8 35 64 71 125 36 61
73 126 84 144 41 74 102 179 246 429 84 144 160 277 171 295 10 18 60 105 111
193 98 169 98 168 179 310 28 50 56 97 61 105 6 8 15 24 20 35 6 11 19 34 30
50 11 17 23 37 27 45 7 16 261 457 363 630 14 25 29 52 33 60 4 8 18 33 32 55
14 22 28 47 32 55 4 8 31 55 60 103 29 48 53 89 53 91 0 2 30 55 66 117 37 63
109 187 160 276 l94 163 -21 37 c-12 21 -25 43 -29 48 -4 6 -19 30 -32 55 -14
25 -67 117 -118 205 -51 88 -104 180 -118 205 -13 25 -39 70 -57 100 -18 30
-68 116 -110 190 -43 74 -161 279 -263 455 -101 176 -193 336 -204 355 -11 19
-71 123 -133 230 -62 107 -121 210 -131 227 -33 57 -278 481 -372 643 -49 85
-131 227 -182 315 -51 88 -143 248 -205 355 -61 107 -145 251 -185 320 -40 69
-85 148 -101 175 -15 28 -75 131 -132 230 l-105 180 -2500 3 c-1994 2 -2502 0
-2509 -10z"/>
</g>
</svg>
